# xmcd
#
# Track frame offsets:
#	150
#	14970
#	29925
#	45037
#	56802
#	73530
#	86307
#	100805
#	114245
#	127672
#	139700
#	153465
#	168172
#	180745
#	194502
#	208737
#	221547
#	235737
#	249937
#	262867
#	274782
#	288860
#	302060
#
# Disc length: 4188 seconds
#
# Revision: 0
# Processed by: cddbd v1.4PL0 Copyright (c) Steve Scherf et al.
# Submitted via: EasyCDDAExtractor 4.6.9.1
#
DISCID=3f105a17
DTITLE=Gus Cannon's Jug Stompers - The Best of Cannon's Jug Stompers
DYEAR=1900
DGENRE=Blues
TTITLE0=Feather Bed
TTITLE1=Last Chance Blues
TTITLE2=Big Railroad Blues
TTITLE3=Going To Germany
TTITLE4=Minglewood Blues
TTITLE5=Mule Get Up In The Alley
TTITLE6=Viola Lee Blues
TTITLE7=Walk Right In
TTITLE8=Noah's Blues
TTITLE9=Wolf River Blues
TTITLE10=Riley's Wagon
TTITLE11=Madison Street Rag
TTITLE12=Bring It With You When You Come
TTITLE13=The Rooster's Crowing Blues
TTITLE14=Pig Ankle
TTITLE15=Money Never Runs Out
TTITLE16=Heart Breakin' Blues
TTITLE17=Springdale Blues
TTITLE18=Jonestown Blues
TTITLE19=Prison Wall Blues
TTITLE20=Ripley Blues
TTITLE21=Tired Chicken Blues
TTITLE22=Pretty Mama Blues
EXTD=
EXTT0=
EXTT1=
EXTT2=
EXTT3=
EXTT4=
EXTT5=
EXTT6=
EXTT7=
EXTT8=
EXTT9=
EXTT10=
EXTT11=
EXTT12=
EXTT13=
EXTT14=
EXTT15=
EXTT16=
EXTT17=
EXTT18=
EXTT19=
EXTT20=
EXTT21=
EXTT22=
PLAYORDER=
